<svg width="444" height="221" viewBox="0 0 444 221" fill="none" xmlns="http://www.w3.org/2000/svg">
<path d="M77.3437 218.182H-6.6787e-05V-0.000184059H77.9829C99.9289 -0.000184059 118.821 4.36772 134.659 13.1035C150.497 21.7683 162.678 34.2328 171.2 50.497C179.794 66.7612 184.091 86.2214 184.091 108.878C184.091 131.605 179.794 151.136 171.2 167.471C162.678 183.807 150.426 196.342 134.446 205.078C118.537 213.814 99.5028 218.182 77.3437 218.182ZM46.1292 178.657H75.4261C89.0624 178.657 100.533 176.243 109.837 171.413C119.212 166.513 126.243 158.949 130.93 148.721C135.689 138.423 138.068 125.142 138.068 108.878C138.068 92.7555 135.689 79.5808 130.93 69.3535C126.243 59.1262 119.247 51.5978 109.943 46.7683C100.639 41.9387 89.169 39.524 75.5326 39.524H46.1292V178.657ZM218.262 218.182V-0.000184059H264.391V180.149H357.928V218.182H218.262ZM441.85 -0.000184059L437.695 152.77H398.704L394.442 -0.000184059H441.85ZM418.2 220.952C411.168 220.952 405.131 218.466 400.089 213.494C395.046 208.452 392.56 202.415 392.631 195.383C392.56 188.423 395.046 182.457 400.089 177.486C405.131 172.514 411.168 170.028 418.2 170.028C424.947 170.028 430.877 172.514 435.991 177.486C441.104 182.457 443.697 188.423 443.768 195.383C443.697 200.071 442.454 204.368 440.039 208.274C437.695 212.109 434.606 215.199 430.771 217.542C426.935 219.815 422.745 220.952 418.2 220.952Z" fill="#FF0000"/>
</svg>
